<?xml version="1.0" encoding="UTF-8"?>
<!DOCTYPE svg PUBLIC "-//W3C//DTD SVG 1.1//EN" "http://www.w3.org/Graphics/SVG/1.1/DTD/svg11.dtd">
<!-- Creator: CorelDRAW Home & Student 2018 -->
<svg xmlns="http://www.w3.org/2000/svg" xml:space="preserve" width="300px" height="300px" version="1.1" style="shape-rendering:geometricPrecision; text-rendering:geometricPrecision; image-rendering:optimizeQuality; fill-rule:evenodd; clip-rule:evenodd"
viewBox="0 0 300 300"
 xmlns:xlink="http://www.w3.org/1999/xlink">
 <defs>
  <style type="text/css">
   <![CDATA[
    .str0 {stroke:#B3B3B3;stroke-width:10;stroke-miterlimit:22.9256}
    .fil0 {fill:white}
    .fil1 {fill:#B3B3B3;fill-rule:nonzero}
   ]]>
  </style>
 </defs>
 <g id="Layer_x0020_1">
  <metadata id="CorelCorpID_0Corel-Layer"/>
  <rect class="fil0 str0" width="300" height="300"/>
  <path class="fil1" d="M88.63 90.56l-47.82 131.69 -19.55 0 55.08 -144.49 12.59 0 -0.3 12.8zm40.1 131.69l-47.92 -131.69 -0.31 -12.8 12.6 0 55.28 144.49 -19.65 0zm-2.47 -53.48l0 15.68 -81.19 0 0 -15.68 81.19 0z"/>
  <path id="1" class="fil1" d="M262.08 139.81l0 15.58 -78.17 0 0 -15.58 78.17 0zm-75.19 -62.05l0 144.49 -19.17 0 0 -144.49 19.17 0zm91.85 0l0 144.49 -19.03 0 0 -144.49 19.03 0z"/>
 </g>
</svg>
