<?xml version="1.0" encoding="UTF-8"?>
<!DOCTYPE svg PUBLIC "-//W3C//DTD SVG 1.1//EN" "http://www.w3.org/Graphics/SVG/1.1/DTD/svg11.dtd">
<!-- Creator: CorelDRAW Home & Student 2018 -->
<svg xmlns="http://www.w3.org/2000/svg" xml:space="preserve" width="300px" height="300px" version="1.1" style="shape-rendering:geometricPrecision; text-rendering:geometricPrecision; image-rendering:optimizeQuality; fill-rule:evenodd; clip-rule:evenodd"
viewBox="0 0 300 300"
 xmlns:xlink="http://www.w3.org/1999/xlink">
 <defs>
  <style type="text/css">
   <![CDATA[
    .str0 {stroke:#B3B3B3;stroke-width:16;stroke-miterlimit:22.9256}
    .fil0 {fill:none}
    .fil2 {fill:#B3B3B3}
    .fil1 {fill:white}
   ]]>
  </style>
   <clipPath id="id0">
    <path d="M150 0c82.84,0 150,67.16 150,150 0,82.84 -67.16,150 -150,150 -82.84,0 -150,-67.16 -150,-150 0,-82.84 67.16,-150 150,-150z"/>
   </clipPath>
 </defs>
 <g id="Layer_x0020_1">
  <metadata id="CorelCorpID_0Corel-Layer"/>
  <rect class="fil0" width="300" height="300"/>
  <path class="fil1" d="M150 0c82.84,0 150,67.16 150,150 0,82.84 -67.16,150 -150,150 -82.84,0 -150,-67.16 -150,-150 0,-82.84 67.16,-150 150,-150z"/>
  <g style="clip-path:url(#id0)">
   <g id="_622699976">
    <rect class="fil2" transform="matrix(6.73434 6.73434 -7.07106 7.07106 59.8431 28.0239)" width="31.5" height="4.5"/>
    <rect class="fil2" transform="matrix(-6.73434 6.73434 -7.07106 -7.07106 271.975 59.8436)" width="31.5" height="4.5"/>
   </g>
  </g>
  <path class="fil0 str0" d="M150 0c82.84,0 150,67.16 150,150 0,82.84 -67.16,150 -150,150 -82.84,0 -150,-67.16 -150,-150 0,-82.84 67.16,-150 150,-150z"/>
 </g>
</svg>
