<?xml version="1.0" encoding="UTF-8"?>
<!DOCTYPE svg PUBLIC "-//W3C//DTD SVG 1.1//EN" "http://www.w3.org/Graphics/SVG/1.1/DTD/svg11.dtd">
<!-- Creator: CorelDRAW Home & Student 2018 -->
<svg xmlns="http://www.w3.org/2000/svg" xml:space="preserve" width="300px" height="300px" version="1.1" style="shape-rendering:geometricPrecision; text-rendering:geometricPrecision; image-rendering:optimizeQuality; fill-rule:evenodd; clip-rule:evenodd"
viewBox="0 0 300 300"
 xmlns:xlink="http://www.w3.org/1999/xlink">
 <defs>
  <style type="text/css">
   <![CDATA[
    .str0 {stroke:#B3B3B3;stroke-width:10;stroke-miterlimit:22.9256}
    .fil2 {fill:none}
    .fil0 {fill:white}
    .fil1 {fill:#B3B3B3;fill-rule:nonzero}
   ]]>
  </style>
   <clipPath id="id0">
    <path d="M0 0l300 0 0 300 -300 0 0 -300z"/>
   </clipPath>
 </defs>
 <g id="Layer_x0020_1">
  <metadata id="CorelCorpID_0Corel-Layer"/>
  <polygon class="fil0" points="0,0 300,0 300,300 0,300 "/>
  <g style="clip-path:url(#id0)">
   <g id="_968744904">
    <path id="1" class="fil1" d="M204.7 422.59l-103.58 -105.03 6.57 -5.11c33.68,19.45 62.97,31.85 88.02,37.32 46.67,9.85 83.88,0.85 111.84,-27.11 19.34,-19.33 28.93,-41.94 28.69,-67.47 -0.24,-25.65 -10.21,-48.27 -30.03,-68.08 -8.5,-8.51 -18.71,-15.92 -30.39,-22 -11.67,-6.08 -22.97,-9.97 -34.16,-11.67 -11.43,-1.59 -24.55,-0.98 -39.51,1.82 -14.95,2.8 -36.11,8.75 -63.58,17.75 -24.08,8.02 -43.16,13.49 -57.26,16.53 -14.09,3.04 -26.5,4.25 -37.44,3.77 -30.4,-1.22 -56.77,-13.13 -79.51,-35.86 -13.86,-13.87 -24.43,-30.15 -31.72,-48.75 -7.3,-18.48 -10.46,-37.45 -9.61,-56.78 1.33,-34.28 14.34,-63.69 38.66,-88.01 8.02,-8.02 16.05,-14.59 24.31,-19.69 8.26,-5.24 20.43,-11.19 36.35,-17.75 11.79,-5.12 19.69,-8.64 23.59,-10.83 4.01,-2.06 7.17,-4.25 9.48,-6.68 5.83,-5.83 5.59,-14.11 -0.97,-24.68l5.83 -5.84 101.38 98.48 -5.83 5.83c-20.42,-11.43 -36.47,-19.69 -48.26,-24.92 -11.68,-5.11 -23.47,-9.12 -35.14,-11.8 -21.27,-4.85 -39.99,-5.47 -56.16,-1.81 -16.17,3.53 -30.63,11.79 -43.52,24.68 -18.84,18.84 -27.23,39.99 -25.41,63.69 0.73,9.73 3.29,19.33 7.79,29.06 4.37,9.61 10.2,17.99 17.25,25.04 27.96,27.96 68.57,32.59 121.69,13.62l52.65 -18.36c40.24,-14.34 74.16,-19.81 101.87,-16.29 31.24,3.77 58.35,17.15 81.57,40.37 15.32,15.31 26.87,33.06 34.65,53.36 10.82,28.21 12.77,56.41 5.84,84.49 -6.92,28.09 -22.25,53.98 -45.95,77.69 -21.64,21.64 -46.81,38.29 -75.38,49.71 -14.95,5.96 -23.71,9.48 -26.51,10.94 -2.67,1.34 -5.22,3.3 -7.77,5.73 -8.03,8.14 -9.61,17.74 -4.5,28.8l-5.84 5.84z"/>
   </g>
  </g>
  <polygon class="fil2 str0" points="0,0 300,0 300,300 0,300 "/>
 </g>
</svg>
