<?xml version="1.0" encoding="UTF-8"?>
<!DOCTYPE svg PUBLIC "-//W3C//DTD SVG 1.1//EN" "http://www.w3.org/Graphics/SVG/1.1/DTD/svg11.dtd">
<!-- Creator: CorelDRAW Home & Student 2018 -->
<svg xmlns="http://www.w3.org/2000/svg" xml:space="preserve" width="300px" height="300px" version="1.1" style="shape-rendering:geometricPrecision; text-rendering:geometricPrecision; image-rendering:optimizeQuality; fill-rule:evenodd; clip-rule:evenodd"
viewBox="0 0 300 300"
 xmlns:xlink="http://www.w3.org/1999/xlink">
 <defs>
  <style type="text/css">
   <![CDATA[
    .str0 {stroke:red;stroke-width:10;stroke-miterlimit:22.9256}
    .fil2 {fill:none}
    .fil0 {fill:white}
    .fil1 {fill:#B3B3B3;fill-rule:nonzero}
   ]]>
  </style>
   <clipPath id="id0">
    <path d="M0 0l300 0 0 300 -300 0 0 -300z"/>
   </clipPath>
 </defs>
 <g id="Layer_x0020_1">
  <metadata id="CorelCorpID_0Corel-Layer"/>
  <rect class="fil0" width="300" height="300"/>
  <path class="fil1" d="M127.42 206.68l0 15.58 -76.51 0 0 -15.58 76.51 0zm-72.61 -128.9l0 144.48 -19.17 0 0 -144.48 19.17 0zm62.48 62.04l0 15.58 -66.38 0 0 -15.58 66.38 0zm9.15 -62.04l0 15.68 -75.53 0 0 -15.68 75.53 0z"/>
  <path id="1" class="fil1" d="M204.61 90.58l-47.82 131.68 -19.55 0 55.07 -144.48 12.6 0 -0.3 12.8zm40.1 131.68l-47.93 -131.68 -0.3 -12.8 12.6 0 55.27 144.48 -19.64 0zm-2.47 -53.48l0 15.68 -81.19 0 0 -15.68 81.19 0z"/>
  <g>
  </g>
  <g style="clip-path:url(#id0)">
   <g>
    <line class="fil2 str0" x1="0" y1="0" x2="300" y2= "300" />
    <line class="fil2 str0" x1="0" y1="300" x2="300" y2= "0" />
   </g>
  </g>
  <polygon class="fil2" points="0,0 300,0 300,300 0,300 "/>
 </g>
</svg>
