<?xml version="1.0" encoding="UTF-8"?>
<!DOCTYPE svg PUBLIC "-//W3C//DTD SVG 1.1//EN" "http://www.w3.org/Graphics/SVG/1.1/DTD/svg11.dtd">
<!-- Creator: CorelDRAW Home & Student 2018 -->
<svg xmlns="http://www.w3.org/2000/svg" xml:space="preserve" width="300px" height="300px" version="1.1" style="shape-rendering:geometricPrecision; text-rendering:geometricPrecision; image-rendering:optimizeQuality; fill-rule:evenodd; clip-rule:evenodd"
viewBox="0 0 300 300"
 xmlns:xlink="http://www.w3.org/1999/xlink">
 <defs>
  <style type="text/css">
   <![CDATA[
    .str0 {stroke:#B3B3B3;stroke-width:10;stroke-miterlimit:22.9256}
    .str1 {stroke:#B3B3B3;stroke-width:2.36;stroke-miterlimit:22.9256}
    .fil2 {fill:none;fill-rule:nonzero}
    .fil0 {fill:white}
    .fil1 {fill:#B3B3B3;fill-rule:nonzero}
   ]]>
  </style>
 </defs>
 <g id="Layer_x0020_1">
  <metadata id="CorelCorpID_0Corel-Layer"/>
  <rect class="fil0 str0" width="300" height="300"/>
  <path class="fil1" d="M30.78 77.76l47.82 0c10.88,0 20.05,1.66 27.54,4.98 7.52,3.28 13.24,8.16 17.17,14.63 3.93,6.43 5.89,14.36 5.89,23.77 0,6.61 -1.32,12.64 -3.99,18.12 -2.68,5.46 -6.54,10.1 -11.52,13.89 -5.01,3.79 -10.97,6.64 -17.91,8.47l-5.36 2.1 -44.94 0 -0.2 -15.58 33.93 0c6.88,0 12.6,-1.22 17.18,-3.63 4.53,-2.4 7.99,-5.69 10.29,-9.78 2.34,-4.1 3.49,-8.64 3.49,-13.59 0,-5.55 -1.08,-10.43 -3.28,-14.59 -2.17,-4.17 -5.59,-7.42 -10.27,-9.69 -4.67,-2.27 -10.67,-3.42 -18.02,-3.42l-28.65 0 0 128.81 -19.17 0 0 -144.49zm84.44 144.49l-35.13 -65.47 19.95 -0.11 35.63 64.39 0 1.19 -20.45 0z"/>
  <path id="1" class="fil1" d="M209.48 90.56l-47.83 131.69 -19.54 0 55.07 -144.49 12.6 0 -0.3 12.8zm40.1 131.69l-47.93 -131.69 -0.3 -12.8 12.6 0 55.27 144.49 -19.64 0zm-2.48 -53.48l0 15.68 -81.18 0 0 -15.68 81.18 0z"/>
  <path id="2" class="fil2 str1" d="M30.78 77.76l47.82 0c10.88,0 20.05,1.66 27.54,4.98 7.52,3.28 13.24,8.16 17.17,14.63 3.93,6.43 5.89,14.36 5.89,23.77 0,6.61 -1.32,12.64 -3.99,18.12 -2.68,5.46 -6.54,10.1 -11.52,13.89 -5.01,3.79 -10.97,6.64 -17.91,8.47l-5.36 2.1 -44.94 0 -0.2 -15.58 33.93 0c6.88,0 12.6,-1.22 17.18,-3.63 4.53,-2.4 7.99,-5.69 10.29,-9.78 2.34,-4.1 3.49,-8.64 3.49,-13.59 0,-5.55 -1.08,-10.43 -3.28,-14.59 -2.17,-4.17 -5.59,-7.42 -10.27,-9.69 -4.67,-2.27 -10.67,-3.42 -18.02,-3.42l-28.65 0 0 128.81 -19.17 0 0 -144.49zm84.44 144.49l-35.13 -65.47 19.95 -0.11 35.63 64.39 0 1.19 -20.45 0z"/>
  <path id="3" class="fil2 str1" d="M209.48 90.56l-47.83 131.69 -19.54 0 55.07 -144.49 12.6 0 -0.3 12.8zm40.1 131.69l-47.93 -131.69 -0.3 -12.8 12.6 0 55.27 144.49 -19.64 0zm-2.48 -53.48l0 15.68 -81.18 0 0 -15.68 81.18 0z"/>
 </g>
</svg>
