<?xml version="1.0" encoding="UTF-8"?>
<!DOCTYPE svg PUBLIC "-//W3C//DTD SVG 1.1//EN" "http://www.w3.org/Graphics/SVG/1.1/DTD/svg11.dtd">
<!-- Creator: CorelDRAW Home & Student 2018 -->
<svg xmlns="http://www.w3.org/2000/svg" xml:space="preserve" width="300px" height="300px" version="1.1" style="shape-rendering:geometricPrecision; text-rendering:geometricPrecision; image-rendering:optimizeQuality; fill-rule:evenodd; clip-rule:evenodd"
viewBox="0 0 300 300"
 xmlns:xlink="http://www.w3.org/1999/xlink">
 <defs>
  <style type="text/css">
   <![CDATA[
    .str1 {stroke:red;stroke-width:10;stroke-miterlimit:22.9256}
    .str0 {stroke:white;stroke-width:10;stroke-miterlimit:22.9256}
    .fil1 {fill:none}
    .fil0 {fill:#B3B3B3}
   ]]>
  </style>
   <clipPath id="id0">
    <path d="M0 0l300 0 0 300 -300 0 0 -300z"/>
   </clipPath>
 </defs>
 <g id="Layer_x0020_1">
  <metadata id="CorelCorpID_0Corel-Layer"/>
  <polygon class="fil0" points="0,0 300,0 300,300 0,300 "/>
  <g style="clip-path:url(#id0)">
   <g id="_775427736">
    <path id="1" class="fil1 str0" d="M-15 300c35.02,-101.31 44.97,-201.13 38.99,-300 31.57,101.61 46.26,201.84 35.87,300"/>
    <path class="fil1 str0" d="M59.86 300c35.02,-101.31 44.97,-201.13 38.99,-300 31.56,101.61 46.26,201.84 35.87,300"/>
    <path class="fil1 str0" d="M134.72 300c35.02,-101.31 44.97,-201.13 38.98,-300 31.57,101.61 46.27,201.84 35.87,300"/>
    <path class="fil1 str0" d="M209.57 300c35.03,-101.31 44.98,-201.13 38.99,-300 31.57,101.61 46.27,201.84 35.87,300"/>
    <path class="fil1 str0" d="M284.43 300c35.03,-101.31 44.98,-201.13 38.99,-300 31.57,101.61 46.27,201.84 35.87,300"/>
    <line class="fil1 str1" x1="0" y1="0" x2="300" y2= "300" />
    <line class="fil1 str1" x1="0" y1="300" x2="300" y2= "0" />
   </g>
  </g>
  <polygon class="fil1" points="0,0 300,0 300,300 0,300 "/>
 </g>
</svg>
