<?xml version="1.0" encoding="UTF-8"?>
<!DOCTYPE svg PUBLIC "-//W3C//DTD SVG 1.1//EN" "http://www.w3.org/Graphics/SVG/1.1/DTD/svg11.dtd">
<!-- Creator: CorelDRAW Home & Student 2018 -->
<svg xmlns="http://www.w3.org/2000/svg" xml:space="preserve" width="300px" height="300px" version="1.1" style="shape-rendering:geometricPrecision; text-rendering:geometricPrecision; image-rendering:optimizeQuality; fill-rule:evenodd; clip-rule:evenodd"
viewBox="0 0 300 300"
 xmlns:xlink="http://www.w3.org/1999/xlink">
 <defs>
  <style type="text/css">
   <![CDATA[
    .str0 {stroke:#B3B3B3;stroke-width:10;stroke-miterlimit:22.9256}
    .str1 {stroke:#B3B3B3;stroke-width:8;stroke-miterlimit:10}
    .fil0 {fill:white}
    .fil1 {fill:#34302F;fill-rule:nonzero}
   ]]>
  </style>
 </defs>
 <g id="Layer_x0020_1">
  <metadata id="CorelCorpID_0Corel-Layer"/>
  <rect class="fil0 str0" width="300" height="300"/>
  <path class="fil1 str1" d="M152.27 163.98c-0.36,-0.91 -0.05,-1.95 0.72,-2.54 0.82,-0.59 1.91,-0.59 2.68,0.04 16.34,11.85 27.73,26.78 33.54,42.35 4.77,12.84 5.72,26.14 2.5,38.49 5.08,-5.36 9.3,-11.39 12.8,-17.93 5.36,-10.17 8.89,-21.47 10.98,-33.22 4.72,-27.01 -2.09,-51.93 -13.29,-73.03 -17.17,-32.32 -44.53,-55.61 -56.92,-63.91 2.63,24.37 -13.85,45.07 -30.82,66.31 -8.17,10.26 -16.48,20.61 -22.61,31.5 -9.62,16.93 -10.98,35.81 -6.12,52.88 4.58,16.06 14.7,30.5 28.73,40.21 -0.09,-0.5 -0.18,-1 -0.32,-1.54 -0.46,-2.45 -0.73,-4.99 -0.82,-7.54 -0.23,-9.62 2.37,-18.88 7.27,-26.68 4.9,-7.81 12.02,-14.26 20.78,-18.2 0.91,-0.41 1.95,-0.19 2.59,0.54 0.68,0.77 0.73,1.86 0.23,2.68 -0.91,1.4 -1.59,2.81 -2.09,4.13 -0.5,1.4 -0.77,2.77 -0.86,4.04 -0.23,3.4 0.49,5.9 1.72,7.21l0 0c0.46,0.5 0.95,0.78 1.5,0.87 0.55,0.09 1.18,-0.05 1.86,-0.41 2.09,-1.14 4.26,-4.13 5.95,-9.53 1.63,-5.22 2.85,-10.85 3.04,-16.93 0.18,-6.04 -0.64,-12.62 -3.04,-19.79l0 0zm-35.14 88.1c-17.56,-10.13 -30.27,-26.96 -35.67,-45.94 -5.22,-18.15 -3.72,-38.26 6.49,-56.32 6.36,-11.17 14.7,-21.7 23.01,-32.05 17.43,-21.83 34.36,-43.07 29.18,-67.49l-0.04 -0.18c-0.13,-0.77 0.18,-1.59 0.86,-2.09 0.64,-0.5 1.55,-0.59 2.27,-0.23l0.14 0.09c9.39,5 42.89,30.73 62.77,68.18 11.62,21.88 18.66,47.75 13.75,75.89 -2.13,12.16 -5.85,23.92 -11.43,34.49 -5.13,9.67 -11.85,18.34 -20.43,25.37 -0.77,0.68 -1.95,0.73 -2.77,0.09 -0.82,-0.63 -1.13,-1.77 -0.68,-2.67 6.04,-13.62 5.94,-29.01 0.45,-43.85 -4.85,-13.02 -13.88,-25.64 -26.68,-36.22 1.18,5.22 1.54,10.12 1.41,14.75 -0.19,6.58 -1.51,12.57 -3.23,18.16 -2.04,6.58 -5.08,10.48 -8.07,12.07 -1.59,0.86 -3.18,1.14 -4.68,0.91 -1.55,-0.23 -2.9,-1 -4.04,-2.22l0 0c-2.04,-2.18 -3.27,-5.86 -2.95,-10.53 0.09,-1.28 0.32,-2.59 0.68,-3.95 -5.36,3.49 -9.8,8.08 -13.12,13.39 -4.4,7.08 -6.81,15.47 -6.54,24.19 0.05,2.31 0.32,4.63 0.73,6.85 0.41,2.27 1.05,4.49 1.82,6.63 0.36,0.91 0.09,1.91 -0.64,2.54 -0.72,0.59 -1.77,0.68 -2.59,0.14l0 0z"/>
 </g>
</svg>
