<?xml version="1.0" encoding="UTF-8"?>
<!DOCTYPE svg PUBLIC "-//W3C//DTD SVG 1.1//EN" "http://www.w3.org/Graphics/SVG/1.1/DTD/svg11.dtd">
<!-- Creator: CorelDRAW Home & Student 2018 -->
<svg xmlns="http://www.w3.org/2000/svg" xml:space="preserve" width="300px" height="300px" version="1.1" style="shape-rendering:geometricPrecision; text-rendering:geometricPrecision; image-rendering:optimizeQuality; fill-rule:evenodd; clip-rule:evenodd"
viewBox="0 0 300 300"
 xmlns:xlink="http://www.w3.org/1999/xlink">
 <defs>
  <style type="text/css">
   <![CDATA[
    .str0 {stroke:#B3B3B3;stroke-width:10;stroke-miterlimit:22.9256}
    .str1 {stroke:#B3B3B3;stroke-width:12;stroke-miterlimit:22.9256;stroke-dasharray:24.000000 59.990000}
    .fil1 {fill:none}
    .fil0 {fill:white}
    .fil2 {fill:#B3B3B3;fill-rule:nonzero}
   ]]>
  </style>
 </defs>
 <g id="Layer_x0020_1">
  <metadata id="CorelCorpID_0Corel-Layer"/>
  <rect class="fil0 str0" width="300" height="300"/>
  <rect class="fil1 str1" x="30" y="30.01" width="239.99" height="239.99"/>
  <path class="fil2" d="M176.35 185.79c0,-3.39 -0.55,-6.37 -1.56,-9.01 -1.02,-2.61 -2.81,-4.98 -5.35,-7.08 -2.54,-2.14 -6.07,-4.17 -10.54,-6.07 -4.43,-1.93 -10.09,-3.89 -16.9,-5.86 -7.15,-2.13 -13.58,-4.5 -19.34,-7.11 -5.76,-2.61 -10.7,-5.62 -14.8,-8.97 -4.1,-3.39 -7.25,-7.25 -9.42,-11.62 -2.2,-4.37 -3.28,-9.38 -3.28,-15.01 0,-5.62 1.15,-10.83 3.49,-15.58 2.3,-4.77 5.62,-8.94 9.96,-12.46 4.33,-3.56 9.51,-6.3 15.54,-8.3 6,-2 12.74,-2.98 20.12,-2.98 10.87,0 20.09,2.07 27.64,6.2 7.59,4.13 13.34,9.55 17.31,16.19 3.99,6.67 5.96,13.75 5.96,21.3l-19.04 0c0,-5.42 -1.15,-10.26 -3.49,-14.46 -2.3,-4.2 -5.82,-7.52 -10.5,-9.92 -4.7,-2.41 -10.67,-3.63 -17.88,-3.63 -6.81,0 -12.43,1.02 -16.87,3.09 -4.43,2.03 -7.72,4.81 -9.85,8.33 -2.17,3.52 -3.22,7.52 -3.22,12.02 0,3.05 0.64,5.79 1.93,8.3 1.29,2.47 3.29,4.77 6.03,6.87 2.74,2.14 6.26,4.1 10.53,5.9 4.27,1.76 9.38,3.49 15.35,5.15 8.19,2.3 15.27,4.91 21.2,7.75 5.96,2.85 10.87,6.03 14.77,9.59 3.86,3.52 6.74,7.52 8.6,11.99 1.9,4.47 2.84,9.52 2.84,15.17 0,5.89 -1.18,11.21 -3.59,15.99 -2.37,4.74 -5.75,8.84 -10.19,12.19 -4.44,3.39 -9.76,6 -15.95,7.79 -6.17,1.83 -13.08,2.74 -20.66,2.74 -6.71,0 -13.25,-0.91 -19.72,-2.77 -6.43,-1.87 -12.29,-4.64 -17.54,-8.33 -5.29,-3.73 -9.49,-8.3 -12.64,-13.76 -3.11,-5.48 -4.7,-11.82 -4.7,-19.03l19.07 0c0,4.98 0.94,9.21 2.88,12.77 1.89,3.55 4.53,6.47 7.89,8.8 3.32,2.31 7.14,4 11.41,5.12 4.27,1.08 8.71,1.62 13.35,1.62 6.67,0 12.32,-0.91 16.96,-2.77 4.61,-1.87 8.13,-4.51 10.57,-7.96 2.41,-3.42 3.63,-7.49 3.63,-12.19z"/>
 </g>
</svg>
