<?xml version="1.0" encoding="UTF-8"?>
<!DOCTYPE svg PUBLIC "-//W3C//DTD SVG 1.1//EN" "http://www.w3.org/Graphics/SVG/1.1/DTD/svg11.dtd">
<!-- Creator: CorelDRAW Home & Student 2018 -->
<svg xmlns="http://www.w3.org/2000/svg" xml:space="preserve" width="300px" height="300px" version="1.1" style="shape-rendering:geometricPrecision; text-rendering:geometricPrecision; image-rendering:optimizeQuality; fill-rule:evenodd; clip-rule:evenodd"
viewBox="0 0 300 300"
 xmlns:xlink="http://www.w3.org/1999/xlink">
 <defs>
  <style type="text/css">
   <![CDATA[
    .str0 {stroke:red;stroke-width:9.99;stroke-miterlimit:10}
    .fil2 {fill:none}
    .fil1 {fill:#B3B3B3}
    .fil0 {fill:white}
    .fil3 {fill:#34302F;fill-rule:nonzero}
   ]]>
  </style>
    <clipPath id="id0">
     <path d="M0 0l300 0 0 300 -300 0 0 -300z"/>
    </clipPath>
 </defs>
 <g id="Layer_x0020_1">
  <metadata id="CorelCorpID_0Corel-Layer"/>
  <g id="_829554512">
   <polygon class="fil0" points="0,0 300,0 300,300 0,300 "/>
   <g style="clip-path:url(#id0)">
    <g>
     <rect class="fil1" transform="matrix(-6.94169 -6.94169 -6.94169 6.94169 170.824 20.8254)" width="3" height="54"/>
     <rect class="fil1" transform="matrix(6.94169 -6.94169 6.94169 6.94169 129.173 20.8254)" width="3" height="54"/>
    </g>
   </g>
   <polygon class="fil2" points="0,0 300,0 300,300 0,300 "/>
   <path class="fil3 str0" d="M152.26 178.02c-0.35,-0.91 -0.04,-1.95 0.73,-2.54 0.82,-0.59 1.91,-0.59 2.68,0.04 16.34,11.85 27.73,26.78 33.54,42.35 4.77,12.85 5.72,26.14 2.5,38.49 5.08,-5.36 9.3,-11.39 12.8,-17.93 5.35,-10.17 8.89,-21.47 10.98,-33.22 4.72,-27.01 -2.09,-51.93 -13.3,-73.03 -17.16,-32.32 -44.52,-55.6 -56.91,-63.91 2.63,24.38 -13.85,45.07 -30.83,66.31 -8.16,10.26 -16.47,20.61 -22.6,31.5 -9.62,16.93 -10.98,35.81 -6.12,52.88 4.58,16.07 14.7,30.5 28.72,40.21 -0.08,-0.5 -0.17,-1 -0.31,-1.54 -0.46,-2.45 -0.73,-4.99 -0.82,-7.53 -0.23,-9.63 2.37,-18.89 7.27,-26.69 4.9,-7.81 12.02,-14.25 20.78,-18.2 0.91,-0.41 1.95,-0.18 2.59,0.54 0.68,0.77 0.73,1.86 0.23,2.68 -0.91,1.41 -1.59,2.81 -2.09,4.13 -0.5,1.41 -0.77,2.77 -0.87,4.04 -0.22,3.4 0.5,5.9 1.73,7.22l0 0c0.46,0.49 0.95,0.77 1.5,0.86 0.54,0.09 1.18,-0.05 1.86,-0.41 2.09,-1.13 4.26,-4.13 5.94,-9.53 1.64,-5.22 2.86,-10.85 3.05,-16.93 0.18,-6.04 -0.64,-12.62 -3.05,-19.79l0 0zm-35.13 88.1c-17.56,-10.12 -30.27,-26.96 -35.67,-45.94 -5.22,-18.15 -3.72,-38.26 6.49,-56.32 6.35,-11.17 14.7,-21.7 23.01,-32.05 17.43,-21.83 34.36,-43.07 29.18,-67.49l-0.04 -0.18c-0.13,-0.77 0.18,-1.59 0.86,-2.08 0.64,-0.51 1.54,-0.6 2.27,-0.23l0.14 0.09c9.39,4.99 42.89,30.73 62.77,68.17 11.62,21.88 18.66,47.75 13.75,75.89 -2.13,12.16 -5.85,23.92 -11.43,34.49 -5.13,9.67 -11.85,18.34 -20.43,25.37 -0.77,0.69 -1.95,0.73 -2.77,0.1 -0.82,-0.64 -1.13,-1.77 -0.68,-2.68 6.04,-13.62 5.94,-29 0.45,-43.85 -4.85,-13.02 -13.89,-25.64 -26.68,-36.22 1.17,5.22 1.54,10.13 1.41,14.75 -0.19,6.59 -1.51,12.58 -3.23,18.16 -2.04,6.58 -5.08,10.49 -8.08,12.07 -1.58,0.87 -3.17,1.14 -4.67,0.91 -1.55,-0.23 -2.9,-1 -4.04,-2.22l0 0c-2.04,-2.18 -3.27,-5.86 -2.95,-10.53 0.09,-1.27 0.32,-2.59 0.68,-3.95 -5.36,3.49 -9.8,8.08 -13.12,13.39 -4.4,7.08 -6.81,15.48 -6.54,24.19 0.05,2.31 0.32,4.63 0.73,6.85 0.41,2.27 1.05,4.5 1.82,6.63 0.36,0.91 0.09,1.91 -0.64,2.54 -0.72,0.59 -1.77,0.68 -2.59,0.14l0 0z"/>
  </g>
 </g>
</svg>
